# xmcd CD database file
#
# Track frame offsets:
#	150
#	35715
#	55440
#	80865
#	92370
#	120915
#	132540
#	189870
#	210915
#	247440
#	259630
#	284425
#	298962
#
# Disc length: 4302 seconds
#
# Revision: 1
# Processed by: cddbd v1.5.1PL0 Copyright (c) Steve Scherf et al.
# Submitted via: CDex 1.51
#
DISCID=c810cc0d
DTITLE=外道 - 1976さよならニッポン1976 さよならニッポン(Disc2/フカヒレ狂乱クリスマス編)
DYEAR=2003
DGENRE=Japanese Rock
TTITLE0=黒い影
TTITLE1=そんな
TTITLE2=いつもの所でブルースを
TTITLE3=天国への道
TTITLE4=コウモリ男
TTITLE5=ロックンロール・バカ？
TTITLE6=ダンス・ダンス・ダンス
TTITLE7=I CAN SHOUT～宇宙からの叫びII
TTITLE8=何？
TTITLE9=ビュンビュン
TTITLE10=香り
TTITLE11=悪魔のベイビー
TTITLE12=ぶっこんでやれ!
EXTD=YEAR: 2003
EXTT0=
EXTT1=
EXTT2=
EXTT3=
EXTT4=
EXTT5=
EXTT6=
EXTT7=
EXTT8=
EXTT9=
EXTT10=
EXTT11=
EXTT12=
PLAYORDER=
